<svg xmlns="http://www.w3.org/2000/svg" style="overflow: visible;" viewBox="0 0 512 50"
     data-svgdocument="" id="_dlsqURYgu_NklLaE8ZTBD" class="fl-svgdocument" x="0" y="0"
     xmlns:xlink="http://www.w3.org/1999/xlink">
    <defs id="_a42ilFD_QIIu-xUlOmPkD"
          transform="matrix(1.2309023141860962, 0, 0, 1.2309023141860962, -41.48091125488281, -82.9344253540039)"
          data-uid="o_eiajbd7bg_5"></defs>
    <path text="Boilerplate" text-anchor="middle" font-size="100" letter-spacing="0" side="left" offset="0.5" dx="0"
          dy="0" space="preserve" href="" font-family="Bungee" font-scale="contain"
          transform="matrix(0.6828274590368105, 0, 0, 0.6828274590368105, 255.3171725409632, 50)" x="0"
          y="0" fill="#718096" data-fl-textpath="" id="_eUZK27q4lDYmujon1zU9v" data-uid="o_eiajbd7bg_6"
          d="M-327.90000000000003 0L-327.90000000000003 0L-366.3 0Q-368.2 0 -369.05-0.85Q-369.90000000000003-1.7 -369.90000000000003-3.6L-369.90000000000003-3.6L-369.90000000000003-68.4Q-369.90000000000003-70.3 -369.05-71.15Q-368.2-72 -366.3-72L-366.3-72L-334.40000000000003-72Q-324.6-72 -319.90000000000003-68.25Q-315.2-64.5 -315.2-56.7L-315.2-56.7L-315.2-51.9Q-315.2-47.7 -316.65000000000003-45.05Q-318.1-42.4 -321.1-41.1L-321.1-41.1Q-314.7-40.5 -311.6-36.7Q-308.5-32.9 -308.5-25.6L-308.5-25.6L-308.5-16.4Q-308.5-8 -313.25-4Q-318 0 -327.90000000000003 0ZM-338.90000000000003-55L-347.40000000000003-55L-347.40000000000003-44.2L-338.90000000000003-44.2Q-337-44.2 -336.05-45.2Q-335.1-46.2 -335.1-48.2L-335.1-48.2L-335.1-51Q-335.1-53 -336.05-54Q-337-55 -338.90000000000003-55L-338.90000000000003-55ZM-334.40000000000003-28.8L-347.40000000000003-28.8L-347.40000000000003-17L-334.40000000000003-17Q-332.5-17 -331.55-18Q-330.6-19 -330.6-21L-330.6-21L-330.6-24.9Q-330.6-26.9 -331.55-27.85Q-332.5-28.8 -334.40000000000003-28.8L-334.40000000000003-28.8ZM-236.4-53L-236.4-18.9Q-236.4-14.3 -237.75-10.55Q-239.10000000000002-6.8 -242.55-4.15Q-246-1.5 -252.05 0Q-258.1 1.5 -267.40000000000003 1.5L-267.40000000000003 1.5Q-276.7 1.5 -282.8 0Q-288.90000000000003-1.5 -292.35-4.15Q-295.8-6.8 -297.15000000000003-10.55Q-298.5-14.3 -298.5-18.9L-298.5-18.9L-298.5-53Q-298.5-57.6 -297.15000000000003-61.35Q-295.8-65.1 -292.35-67.8Q-288.90000000000003-70.5 -282.8-72Q-276.7-73.5 -267.40000000000003-73.5L-267.40000000000003-73.5Q-258.1-73.5 -252.05-72Q-246-70.5 -242.55-67.8Q-239.10000000000002-65.1 -237.75-61.35Q-236.4-57.6 -236.4-53L-236.4-53ZM-275.8-49.4L-275.8-22.5Q-275.8-20.5 -274.3-19.15Q-272.8-17.8 -267.40000000000003-17.8L-267.40000000000003-17.8Q-262-17.8 -260.5-19.15Q-259-20.5 -259-22.5L-259-22.5L-259-49.4Q-259-51.3 -260.5-52.65Q-262-54 -267.40000000000003-54L-267.40000000000003-54Q-272.8-54 -274.3-52.65Q-275.8-51.3 -275.8-49.4L-275.8-49.4ZM-179.10000000000002 0L-221.70000000000002 0Q-223.60000000000002 0 -224.45000000000002-0.85Q-225.3-1.7 -225.3-3.6L-225.3-3.6L-225.3-15.5Q-225.3-17.4 -224.45000000000002-18.25Q-223.60000000000002-19.1 -221.70000000000002-19.1L-221.70000000000002-19.1L-211.8-19.1L-211.8-52.7L-221.70000000000002-52.7Q-223.60000000000002-52.7 -224.45000000000002-53.55Q-225.3-54.4 -225.3-56.3L-225.3-56.3L-225.3-68.4Q-225.3-70.3 -224.45000000000002-71.15Q-223.60000000000002-72 -221.70000000000002-72L-221.70000000000002-72L-179.10000000000002-72Q-177.20000000000002-72 -176.35000000000002-71.15Q-175.50000000000003-70.3 -175.50000000000003-68.4L-175.50000000000003-68.4L-175.50000000000003-56.3Q-175.50000000000003-54.4 -176.35000000000002-53.55Q-177.20000000000002-52.7 -179.10000000000002-52.7L-179.10000000000002-52.7L-188.8-52.7L-188.8-19.1L-179.10000000000002-19.1Q-177.20000000000002-19.1 -176.35000000000002-18.25Q-175.50000000000003-17.4 -175.50000000000003-15.5L-175.50000000000003-15.5L-175.50000000000003-3.6Q-175.50000000000003-1.7 -176.35000000000002-0.85Q-177.20000000000002 0 -179.10000000000002 0L-179.10000000000002 0ZM-108.70000000000002 0L-108.70000000000002 0L-159.60000000000002 0Q-161.50000000000003 0 -162.35000000000002-0.85Q-163.20000000000002-1.7 -163.20000000000002-3.6L-163.20000000000002-3.6L-163.20000000000002-68.4Q-163.20000000000002-70.3 -162.35000000000002-71.15Q-161.50000000000003-72 -159.60000000000002-72L-159.60000000000002-72L-144.10000000000002-72Q-142.20000000000002-72 -141.35000000000002-71.15Q-140.50000000000003-70.3 -140.50000000000003-68.4L-140.50000000000003-68.4L-140.50000000000003-18.9L-126.80000000000003-18.9L-126.80000000000003-35.1Q-126.80000000000003-37 -125.95000000000002-37.85Q-125.10000000000002-38.7 -123.20000000000002-38.7L-123.20000000000002-38.7L-108.70000000000002-38.7Q-106.80000000000003-38.7 -105.95000000000002-37.85Q-105.10000000000002-37 -105.10000000000002-35.1L-105.10000000000002-35.1L-105.10000000000002-3.6Q-105.10000000000002-1.7 -105.95000000000002-0.85Q-106.80000000000003 0 -108.70000000000002 0ZM-43.700000000000024 0L-43.700000000000024 0L-90.10000000000002 0Q-92.00000000000003 0 -92.85000000000002-0.85Q-93.70000000000002-1.7 -93.70000000000002-3.6L-93.70000000000002-3.6L-93.70000000000002-68.4Q-93.70000000000002-70.3 -92.85000000000002-71.15Q-92.00000000000003-72 -90.10000000000002-72L-90.10000000000002-72L-43.700000000000024-72Q-41.800000000000026-72 -40.950000000000024-71.15Q-40.10000000000002-70.3 -40.10000000000002-68.4L-40.10000000000002-68.4L-40.10000000000002-56.7Q-40.10000000000002-54.8 -40.950000000000024-53.95Q-41.800000000000026-53.1 -43.700000000000024-53.1L-43.700000000000024-53.1L-71.30000000000003-53.1L-71.30000000000003-45.4L-51.800000000000026-45.4Q-49.90000000000002-45.4 -49.050000000000026-44.55Q-48.200000000000024-43.7 -48.200000000000024-41.8L-48.200000000000024-41.8L-48.200000000000024-31.1Q-48.200000000000024-29.2 -49.050000000000026-28.35Q-49.90000000000002-27.5 -51.800000000000026-27.5L-51.800000000000026-27.5L-71.30000000000003-27.5L-71.30000000000003-18.9L-43.700000000000024-18.9Q-41.800000000000026-18.9 -40.950000000000024-18.05Q-40.10000000000002-17.2 -40.10000000000002-15.3L-40.10000000000002-15.3L-40.10000000000002-3.6Q-40.10000000000002-1.7 -40.950000000000024-0.85Q-41.800000000000026 0 -43.700000000000024 0ZM 1.799999999999983-54L-5.700000000000017-54L-5.700000000000017-41.2L 1.799999999999983-41.2Q 4.399999999999984-41.2  5.299999999999983-42.55Q 6.1999999999999815-43.9  6.1999999999999815-45.9L 6.1999999999999815-45.9L 6.1999999999999815-49.3Q 6.1999999999999815-51.3  5.299999999999983-52.65Q 4.399999999999984-54  1.799999999999983-54L 1.799999999999983-54ZM-9.300000000000018 0L-9.300000000000018 0L-24.700000000000017 0Q-26.600000000000016 0 -27.450000000000017-0.85Q-28.30000000000002-1.7 -28.30000000000002-3.6L-28.30000000000002-3.6L-28.30000000000002-68.4Q-28.30000000000002-70.3 -27.450000000000017-71.15Q-26.600000000000016-72 -24.700000000000017-72L-24.700000000000017-72L 8.59999999999998-72Q 19.799999999999983-72  24.049999999999983-67.35Q 28.299999999999983-62.7  28.299999999999983-55.3L 28.299999999999983-55.3L 28.299999999999983-50.7Q 28.299999999999983-46.5  27.049999999999983-43.55Q 25.799999999999983-40.6  22.69999999999998-39.3L 22.69999999999998-39.3Q 28.09999999999998-38.7  31.44999999999999-34.9Q 34.79999999999998-31.1  34.79999999999998-24.8L 34.79999999999998-24.8L 34.79999999999998-3.6Q 34.79999999999998-1.7  33.94999999999999-0.85Q 33.09999999999998 0  31.19999999999999 0L 31.19999999999999 0L 15.699999999999982 0Q 13.799999999999983 0  12.949999999999982-0.85Q 12.09999999999998-1.7  12.09999999999998-3.6L 12.09999999999998-3.6L 12.09999999999998-18.9Q 12.09999999999998-21.1  11.249999999999986-22.15Q 10.399999999999984-23.2  8.299999999999983-23.2L 8.299999999999983-23.2L-5.700000000000017-23.2L-5.700000000000017-3.6Q-5.700000000000017-1.7 -6.5500000000000185-0.85Q-7.400000000000016 0 -9.300000000000018 0ZM 65.1 0L 65.1 0L 49.59999999999999 0Q 47.69999999999999 0  46.84999999999999-0.85Q 45.999999999999986-1.7  45.999999999999986-3.6L 45.999999999999986-3.6L 45.999999999999986-68.4Q 45.999999999999986-70.3  46.84999999999999-71.15Q 47.69999999999999-72  49.59999999999999-72L 49.59999999999999-72L 80.19999999999999-72Q 93.79999999999998-72  98.79999999999998-66.6Q 103.79999999999998-61.2  103.79999999999998-52.5L 103.79999999999998-52.5L 103.79999999999998-39.7Q 103.79999999999998-31  98.79999999999998-25.6Q 93.79999999999998-20.2  80.19999999999999-20.2L 80.19999999999999-20.2L 68.69999999999999-20.2L 68.69999999999999-3.6Q 68.69999999999999-1.7  67.85-0.85Q 66.99999999999999 0  65.1 0ZM 77.49999999999999-53.3L 68.49999999999999-53.3L 68.49999999999999-38.2L 77.49999999999999-38.2Q 80.39999999999998-38.2  81.29999999999998-39.7Q 82.19999999999999-41.2  82.19999999999999-43.1L 82.19999999999999-43.1L 82.19999999999999-48.4Q 82.19999999999999-50.3  81.29999999999998-51.8Q 80.39999999999998-53.3  77.49999999999999-53.3L 77.49999999999999-53.3ZM 168.7 0L 168.7 0L 117.79999999999998 0Q 115.89999999999998 0  115.04999999999998-0.85Q 114.19999999999999-1.7  114.19999999999999-3.6L 114.19999999999999-3.6L 114.19999999999999-68.4Q 114.19999999999999-70.3  115.04999999999998-71.15Q 115.89999999999998-72  117.79999999999998-72L 117.79999999999998-72L 133.29999999999998-72Q 135.2-72  136.04999999999998-71.15Q 136.89999999999998-70.3  136.89999999999998-68.4L 136.89999999999998-68.4L 136.89999999999998-18.9L 150.59999999999997-18.9L 150.59999999999997-35.1Q 150.59999999999997-37  151.45-37.85Q 152.29999999999998-38.7  154.2-38.7L 154.2-38.7L 168.7-38.7Q 170.59999999999997-38.7  171.45-37.85Q 172.29999999999998-37  172.29999999999998-35.1L 172.29999999999998-35.1L 172.29999999999998-3.6Q 172.29999999999998-1.7  171.45-0.85Q 170.59999999999997 0  168.7 0ZM 209.79999999999998-51L 209.79999999999998-51L 205.1-35.8L 220.79999999999998-35.8L 216.09999999999997-51Q 215.7-51.9  215.25-52.3Q 214.79999999999998-52.7  214.2-52.7L 214.2-52.7L 211.7-52.7Q 211.09999999999997-52.7  210.64999999999998-52.3Q 210.2-51.9  209.79999999999998-51ZM 204.1-17.6L 204.1-3.6Q 204.1-1.7  203.24999999999997-0.85Q 202.39999999999998 0  200.49999999999997 0L 200.49999999999997 0L 185.79999999999998 0Q 183.89999999999998 0  183.04999999999998-0.85Q 182.2-1.7  182.2-3.6L 182.2-3.6L 182.2-30Q 182.2-33  183.14999999999998-36.9Q 184.1-40.8  186.1-46L 186.1-46L 194.79999999999998-68.7Q 195.39999999999998-70.4  196.64999999999998-71.2Q 197.89999999999998-72  199.89999999999998-72L 199.89999999999998-72L 226.79999999999998-72Q 228.7-72  229.95-71.2Q 231.2-70.4  231.79999999999998-68.7L 231.79999999999998-68.7L 240.5-46Q 242.5-40.8  243.45-36.9Q 244.39999999999998-33  244.39999999999998-30L 244.39999999999998-30L 244.39999999999998-3.6Q 244.39999999999998-1.7  243.54999999999998-0.85Q 242.7 0  240.79999999999998 0L 240.79999999999998 0L 225.7 0Q 223.7 0  222.75-0.85Q 221.79999999999998-1.7  221.79999999999998-3.6L 221.79999999999998-3.6L 221.79999999999998-17.6L 204.1-17.6ZM 286.69999999999993 0L 286.69999999999993 0L 270.49999999999994 0Q 268.59999999999997 0  267.74999999999994-0.85Q 266.9-1.7  266.9-3.6L 266.9-3.6L 266.9-52.7L 252.19999999999996-52.7Q 250.29999999999995-52.7  249.44999999999996-53.55Q 248.59999999999997-54.4  248.59999999999997-56.3L 248.59999999999997-56.3L 248.59999999999997-68.4Q 248.59999999999997-70.3  249.44999999999996-71.15Q 250.29999999999995-72  252.19999999999996-72L 252.19999999999996-72L 304.99999999999994-72Q 306.9-72  307.74999999999994-71.15Q 308.59999999999997-70.3  308.59999999999997-68.4L 308.59999999999997-68.4L 308.59999999999997-56.3Q 308.59999999999997-54.4  307.74999999999994-53.55Q 306.9-52.7  304.99999999999994-52.7L 304.99999999999994-52.7L 290.29999999999995-52.7L 290.29999999999995-3.6Q 290.29999999999995-1.7  289.44999999999993-0.85Q 288.59999999999997 0  286.69999999999993 0ZM 368.29999999999995 0L 368.29999999999995 0L 321.9 0Q 320 0  319.15-0.85Q 318.29999999999995-1.7  318.29999999999995-3.6L 318.29999999999995-3.6L 318.29999999999995-68.4Q 318.29999999999995-70.3  319.15-71.15Q 320-72  321.9-72L 321.9-72L 368.29999999999995-72Q 370.2-72  371.04999999999995-71.15Q 371.9-70.3  371.9-68.4L 371.9-68.4L 371.9-56.7Q 371.9-54.8  371.04999999999995-53.95Q 370.2-53.1  368.29999999999995-53.1L 368.29999999999995-53.1L 340.7-53.1L 340.7-45.4L 360.2-45.4Q 362.09999999999997-45.4  362.95-44.55Q 363.79999999999995-43.7  363.79999999999995-41.8L 363.79999999999995-41.8L 363.79999999999995-31.1Q 363.79999999999995-29.2  362.95-28.35Q 362.09999999999997-27.5  360.2-27.5L 360.2-27.5L 340.7-27.5L 340.7-18.9L 368.29999999999995-18.9Q 370.2-18.9  371.04999999999995-18.05Q 371.9-17.2  371.9-15.3L 371.9-15.3L 371.9-3.6Q 371.9-1.7  371.04999999999995-0.85Q 370.2 0  368.29999999999995 0Z"></path>
</svg>
